<?xml version="1.0" encoding="utf-8"?>
<!-- Generator: Adobe Illustrator 23.0.3, SVG Export Plug-In . SVG Version: 6.00 Build 0)  -->
<svg version="1.1"
	 id="logosvg.com" inkscape:version="0.92.4 (5da689c313, 2019-01-14)" sodipodi:docname="Facebook Group Logo.svg" xmlns:cc="http://creativecommons.org/ns#" xmlns:dc="http://purl.org/dc/elements/1.1/" xmlns:inkscape="http://www.inkscape.org/namespaces/inkscape" xmlns:rdf="http://www.w3.org/1999/02/22-rdf-syntax-ns#" xmlns:sodipodi="http://sodipodi.sourceforge.net/DTD/sodipodi-0.dtd" xmlns:svg="http://www.w3.org/2000/svg"
	 xmlns="http://www.w3.org/2000/svg" xmlns:xlink="http://www.w3.org/1999/xlink" x="0px" y="0px" viewBox="0 0 400 300"
	 style="enable-background:new 0 0 400 300;" xml:space="preserve">
<style type="text/css">
	.st0{fill:#687B81;}
</style>
<path id="logosvg.com_1_" class="st0" d="M35.1,129.8v5.5c0,0.4-0.2,0.6-0.6,0.6H11.1V147h19.4c0.4,0,0.6,0.2,0.6,0.6v5.5
	c0,0.4-0.2,0.6-0.6,0.6H11.1v16.5c0,0.4-0.2,0.6-0.6,0.6H4.6c-0.4,0-0.6-0.2-0.6-0.6v-40.4c0-0.4,0.2-0.6,0.6-0.6h29.9
	C34.9,129.2,35.1,129.4,35.1,129.8 M70.5,153.2c-2.2-6-4.6-12-7-17.5h-1.4c-2.5,5.5-4.9,11.5-7.1,17.5H70.5z M82.9,170.8h-6.5
	c-0.4,0-0.6-0.2-0.7-0.5c-0.9-3.4-1.9-7-3.1-10.6H52.8c-1.2,3.6-2.2,7.2-3.1,10.6c-0.1,0.4-0.3,0.5-0.7,0.5h-6.2
	c-0.4,0-0.7-0.2-0.5-0.7c3.7-13.2,9.4-27.9,15.2-40.2c0.3-0.6,0.6-0.8,1.2-0.8h8.4c0.6,0,0.9,0.2,1.2,0.8
	c5.8,12.3,11.4,26.9,15.2,40.2C83.6,170.6,83.4,170.8,82.9,170.8z M93.6,150.4c0-12.9,8.5-21.9,20.6-21.9h0.9
	c7.6,0,13.5,3.9,16.6,9.4c0.2,0.4,0.1,0.7-0.2,0.8l-5.2,2.6c-0.4,0.2-0.8,0.2-1-0.3c-2.2-3.8-5.5-5.8-10.4-5.8H114
	c-7.6,0-12.9,6.1-12.9,14.9c0,8.8,5.2,14.7,12.9,14.7h0.9c5,0,7.9-1.7,10.1-4.3c0.3-0.3,0.6-0.4,1-0.2l5.4,2.6
	c0.2,0.1,0.3,0.3,0.3,0.4c0,0.1-0.1,0.3-0.2,0.4c-3.3,4.8-9.2,7.8-16.5,7.8h-1C101.7,171.6,93.6,163.1,93.6,150.4 M178.9,164.7v5.5
	c0,0.4-0.2,0.6-0.6,0.6h-31.2c-0.4,0-0.6-0.2-0.6-0.6v-40.4c0-0.4,0.2-0.6,0.6-0.6h30.6c0.4,0,0.6,0.2,0.6,0.6v5.5
	c0,0.4-0.2,0.6-0.6,0.6h-24.2v10.8h19.6c0.4,0,0.6,0.2,0.6,0.6v5.4c0,0.4-0.2,0.6-0.6,0.6h-19.6v10.9h24.7
	C178.7,164.1,178.9,164.4,178.9,164.7 M225.3,158.8c0-3.9-2.6-5.6-8.2-5.6h-14v11.2h14C222.9,164.3,225.3,162.7,225.3,158.8
	 M215.2,135.7h-12v11.2h12c5.4,0,7.8-1.8,7.8-5.6C223,137.4,220.6,135.7,215.2,135.7 M232.6,159.4c0,7.3-5.6,11.4-15.4,11.4h-20.4
	c-0.4,0-0.6-0.2-0.6-0.6v-40.4c0-0.4,0.2-0.6,0.6-0.6h18.6c9.6,0,14.8,3.8,14.8,10.8c0,4.6-2.3,7.6-7,9
	C229.7,150.3,232.6,154.3,232.6,159.4 M267.3,164.8c8.5,0,13.9-5.9,13.9-14.8c0-8.9-5.4-14.8-13.9-14.8h-0.9
	c-8.5,0-13.9,5.9-13.9,14.8c0,8.9,5.4,14.8,13.9,14.8H267.3z M245,150c0-12.5,8.3-21.6,21.4-21.6h0.9c13.1,0,21.4,9,21.4,21.6
	c0,12.5-8.3,21.6-21.4,21.6h-0.9C253.3,171.6,245,162.5,245,150z M322.9,164.8c8.5,0,13.9-5.9,13.9-14.8c0-8.9-5.4-14.8-13.9-14.8
	H322c-8.5,0-13.9,5.9-13.9,14.8c0,8.9,5.4,14.8,13.9,14.8H322.9z M300.7,150c0-12.5,8.3-21.6,21.4-21.6h0.9c13.1,0,21.4,9,21.4,21.6
	c0,12.5-8.3,21.6-21.4,21.6h-0.9C309,171.6,300.7,162.5,300.7,150z M395.5,170.8h-7.7c-0.5,0-0.7-0.1-1-0.5
	c-5.4-6.3-11.7-12.6-17.1-17.3h-3.4v17.2c0,0.4-0.2,0.6-0.6,0.6h-5.9c-0.4,0-0.6-0.2-0.6-0.6v-40.4c0-0.4,0.2-0.6,0.6-0.6h5.9
	c0.4,0,0.6,0.2,0.6,0.6v16.4h3.5c5.8-5.2,11.1-10.9,15.5-16.5c0.3-0.4,0.5-0.4,0.9-0.4h7.2c0.4,0,0.5,0.2,0.5,0.4
	c0,0.1-0.1,0.3-0.2,0.4c-6.4,7.9-12.7,14.3-18.5,19.3c7.4,6.2,14.3,13.2,20.7,20.7C396.2,170.4,396,170.8,395.5,170.8"/>
</svg>
