<?xml version="1.0" encoding="utf-8"?>
<!-- Generator: Adobe Illustrator 22.1.0, SVG Export Plug-In . SVG Version: 6.00 Build 0)  -->
<svg version="1.1"
	 id="svg2" inkscape:version="0.48.2 r9819" sodipodi:docname="New document 1" xmlns:cc="http://creativecommons.org/ns#" xmlns:dc="http://purl.org/dc/elements/1.1/" xmlns:inkscape="http://www.inkscape.org/namespaces/inkscape" xmlns:rdf="http://www.w3.org/1999/02/22-rdf-syntax-ns#" xmlns:sodipodi="http://sodipodi.sourceforge.net/DTD/sodipodi-0.dtd" xmlns:svg="http://www.w3.org/2000/svg"
	 xmlns="http://www.w3.org/2000/svg" xmlns:xlink="http://www.w3.org/1999/xlink" x="0px" y="0px" viewBox="0 0 103 24.9"
	 style="enable-background:new 0 0 103 24.9;" xml:space="preserve">
<style type="text/css">
	.st0{fill:#C3C9D9;}
</style>
<sodipodi:namedview  bordercolor="#666666" borderopacity="1.0" fit-margin-bottom="0.5" fit-margin-left="0.5" fit-margin-right="0.5" fit-margin-top="0.5" id="base" inkscape:current-layer="layer1" inkscape:cx="624.60355" inkscape:cy="-47.969136" inkscape:document-units="px" inkscape:pageopacity="0.0" inkscape:pageshadow="2" inkscape:window-height="1028" inkscape:window-maximized="1" inkscape:window-width="1920" inkscape:window-x="-8" inkscape:window-y="-8" inkscape:zoom="1" pagecolor="#ffffff" showgrid="false">
	<inkscape:grid  empspacing="5" enabled="true" id="grid2996" snapvisiblegridlinesonly="true" type="xygrid" visible="true">
		</inkscape:grid>
</sodipodi:namedview>
<g id="layer1" transform="translate(115.8125,-255.26321)" inkscape:groupmode="layer" inkscape:label="Layer 1">
	<g id="g3018" transform="matrix(1.2509979,0,0,1.2509979,28.943194,-124.83686)">
		<path id="path2998" inkscape:connector-curvature="0" sodipodi:nodetypes="cccccccccc" class="st0" d="M-104.9,323.7h-3.2v-7.4
			l-7.7-10.4h3.3l6.6,9l6.6-9h1.8l-7.5,10.2V323.7z"/>
		<path id="path3000" inkscape:connector-curvature="0" class="st0" d="M-96.5,308.5l-6.7,13.1h1.2l2.1-4.2h6l2,4.2h2.5l-6.5-13.1
			H-96.5z M-96.8,311.4l2.5,5.2h-5.1L-96.8,311.4z"/>
		<path id="path3002" inkscape:connector-curvature="0" class="st0" d="M-88.3,322.8v-14.9h2.8v6.8h8v-6.8h2.8v14.9h-2.8v-7.2h-8
			v7.2H-88.3z"/>
		<path id="path3004" inkscape:connector-curvature="0" class="st0" d="M-48.4,307.3c-5.4,0.1-8.9,3.9-8.9,8c0,5.3,5.2,8,9.1,8
			c4,0,9-2.7,9-8c0-5.6-4.9-8.1-9-8.1C-48.2,307.3-48.3,307.3-48.4,307.3z M-48.1,308.1c3.5,0,5.9,2.6,5.9,7.2c0,5.4-3,7.2-5.8,7.2
			c-3.8,0-5.9-2.8-5.9-7.3C-54,311.1-51.9,308.1-48.1,308.1z M-65.9,309.1c-4.2,0-7.7,2.9-7.7,6.7c0,4.2,4,6.8,7.7,6.8
			c4.4,0,7.6-3.1,7.6-6.7C-58.3,310.3-63.7,309.1-65.9,309.1z M-65.9,309.7c2.4,0,4.9,1.6,4.9,6.1c0,4.3-2.3,6.1-4.9,6.1
			c-2.8,0-4.9-1.8-4.9-6.1C-70.7,311-67.9,309.7-65.9,309.7z"/>
		<path id="path3014" inkscape:connector-curvature="0" sodipodi:nodetypes="cccccccccc" class="st0" d="M-37.9,320l-0.1,2.4
			l2.3,0.2l0.3-2.5L-37.9,320z M-35.2,318.1l1.8-14.2l-3.8,1.2l-0.7,13L-35.2,318.1z"/>
	</g>
</g>
</svg>
